<?xml version="1.0" encoding="utf-8"?>
<!-- Generator: Adobe Illustrator 15.1.0, SVG Export Plug-In . SVG Version: 6.00 Build 0)  -->
<!DOCTYPE svg PUBLIC "-//W3C//DTD SVG 1.1//EN" "http://www.w3.org/Graphics/SVG/1.1/DTD/svg11.dtd">
<svg version="1.1" id="Layer_1" xmlns="http://www.w3.org/2000/svg" xmlns:xlink="http://www.w3.org/1999/xlink" x="0px" y="0px"
	 width="480px" height="480px" viewBox="0 0 480 480" enable-background="new 0 0 480 480" xml:space="preserve">
<g id="_x3C_All_x3E_">
	<path id="_x3C_Outline_x3E_" d="M240,17.206L17.207,240L240,462.794L462.794,240L240,17.206z M31.349,240L240,31.348L448.651,240
		L240,448.651L31.349,240z"/>
	<g id="_x3C_GD_x3E_">
		<path d="M235.368,242.543c0-2.256-1.102-3.678-3.303-4.27c-4.244-1.128-10.286-1.692-18.127-1.692H200.08
			c-7.682,0-12.407,0.215-14.18,0.645c-1.772,0.699-2.659,1.907-2.659,3.626c0,2.524,0.886,4.082,2.659,4.672
			c2.631,0.86,6.365,1.289,11.199,1.289c5.962,0.27,10.164,0.82,12.608,1.652c2.444,0.833,4.095,2.497,4.955,4.995
			c0.858,2.497,1.289,6.674,1.289,12.528c0,7.144-0.564,13.172-1.692,18.087c-1.128,4.914-3.653,8.876-7.573,11.884
			c-7.198,5.747-17.537,8.62-31.018,8.62c-18.208,0-33.06-6.606-44.553-19.819c-10.796-12.138-16.194-26.99-16.194-44.553
			c0-12.031,2.377-23.472,7.13-34.322c4.754-10.849,11.668-19.658,20.746-26.426c9.076-6.768,19.711-10.151,31.904-10.151
			c11.171,0,21.161,2.739,29.971,8.218c5.962,4.028,11.038,10.85,15.227,20.464c1.45,2.848,2.981,4.27,4.592,4.27
			c2.417,0,3.625-3.41,3.625-10.232c-0.215-7.787-0.685-12.931-1.41-15.428c-0.726-2.498-3.452-5.062-8.178-7.694
			c-5.533-3.114-12.34-5.531-20.424-7.251c-8.084-1.718-15.778-2.578-23.082-2.578c-14.933,0-28.575,3.519-40.928,10.554
			c-12.354,7.037-22.103,16.705-29.246,29.004c-7.144,12.3-10.715,25.942-10.715,40.928c0,23.257,8.137,42.055,24.412,56.397
			c14.448,12.568,33.274,18.852,56.477,18.852c12.998,0,26.291-2.632,39.88-7.895c13.427-5.908,20.142-11.199,20.142-15.872
			c0-0.161-0.054-0.671-0.161-1.53c-0.108-0.859-0.161-1.451-0.161-1.773c-1.075-4.994-1.611-10.822-1.611-17.482l1.611-23.445
			L235.368,242.543z"/>
		<path d="M358.474,176.881c-8.648-6.284-17.537-10.339-26.667-12.166c-9.132-1.825-20.599-2.739-34.402-2.739h-42.217
			c-4.62,0-6.929,1.559-6.929,4.673c0,2.203,1.745,3.948,5.237,5.237c4.403,1.075,6.605,2.632,6.605,4.673v113.518
			c0,4.189-0.336,6.929-1.007,8.218c-0.672,1.289-2.753,2.605-6.243,3.947c-3.277,0.807-4.915,2.472-4.915,4.996
			c0,3.061,2.417,4.592,7.251,4.592h53.094c12.084,0,22.665-1.49,31.742-4.472c9.077-2.98,17.536-8.311,25.379-15.992
			c14.287-14.609,21.431-32.656,21.431-54.141C386.833,211.23,377.379,191.115,358.474,176.881z M358.151,271.829
			c-5.265,9.587-12.783,16.893-22.559,21.914c-9.776,5.022-21.297,7.532-34.563,7.532c-7.52,0-12.783-0.63-15.791-1.893
			c-3.008-1.262-4.861-3.465-5.559-6.606c-0.698-3.143-1.047-8.769-1.047-16.879V193.72c0-6.176,0.389-10.661,1.168-13.455
			c0.777-2.792,2.564-4.78,5.357-5.962c2.792-1.181,7.332-1.772,13.615-1.772c21.914,0,38.296,5.291,49.146,15.872
			c6.123,5.801,10.675,13.065,13.655,21.793c2.981,8.729,4.472,17.846,4.472,27.353
			C366.047,250.814,363.415,262.241,358.151,271.829z"/>
	</g>
</g>
</svg>
